<mxfile host="app.diagrams.net" modified="2023-02-22T14:37:07.803Z" agent="5.0 (Macintosh; Intel Mac OS X 10_15_7) AppleWebKit/537.36 (KHTML, like Gecko) Chrome/110.0.0.0 Safari/537.36" etag="7fTnoTyvUmyjseQxEjL7" version="20.8.22" type="github">
  <diagram name="Page-1" id="j9lMLGMgacQRt8Ot56wM">
    <mxGraphModel dx="830" dy="563" grid="1" gridSize="10" guides="1" tooltips="1" connect="1" arrows="1" fold="1" page="1" pageScale="1" pageWidth="850" pageHeight="1100" math="0" shadow="0">
      <root>
        <mxCell id="0" />
        <mxCell id="1" parent="0" />
        <mxCell id="vGh0OU2BGsjd0uDzRgnw-1" value="End" style="ellipse;whiteSpace=wrap;html=1;aspect=fixed;fillColor=#f8cecc;strokeColor=#b85450;fontStyle=1;strokeWidth=2;" vertex="1" parent="1">
          <mxGeometry x="115" y="920" width="70" height="70" as="geometry" />
        </mxCell>
        <mxCell id="vGh0OU2BGsjd0uDzRgnw-2" style="edgeStyle=orthogonalEdgeStyle;rounded=0;orthogonalLoop=1;jettySize=auto;html=1;entryX=0.5;entryY=0;entryDx=0;entryDy=0;fontColor=#FFFFFF;" edge="1" parent="1" source="vGh0OU2BGsjd0uDzRgnw-3" target="vGh0OU2BGsjd0uDzRgnw-5">
          <mxGeometry relative="1" as="geometry" />
        </mxCell>
        <mxCell id="vGh0OU2BGsjd0uDzRgnw-3" value="Start" style="ellipse;whiteSpace=wrap;html=1;aspect=fixed;fillColor=#d5e8d4;strokeColor=#82b366;fontStyle=1;strokeWidth=2;" vertex="1" parent="1">
          <mxGeometry x="115" y="20" width="70" height="70" as="geometry" />
        </mxCell>
        <mxCell id="vGh0OU2BGsjd0uDzRgnw-34" value="" style="edgeStyle=orthogonalEdgeStyle;rounded=0;orthogonalLoop=1;jettySize=auto;html=1;" edge="1" parent="1" source="vGh0OU2BGsjd0uDzRgnw-5" target="vGh0OU2BGsjd0uDzRgnw-29">
          <mxGeometry relative="1" as="geometry" />
        </mxCell>
        <mxCell id="vGh0OU2BGsjd0uDzRgnw-5" value="User membuka aplikasi" style="rounded=1;whiteSpace=wrap;html=1;fontSize=12;glass=0;strokeWidth=1;shadow=0;" vertex="1" parent="1">
          <mxGeometry x="50" y="130" width="200" height="70" as="geometry" />
        </mxCell>
        <mxCell id="vGh0OU2BGsjd0uDzRgnw-6" value="" style="edgeStyle=orthogonalEdgeStyle;rounded=0;orthogonalLoop=1;jettySize=auto;html=1;" edge="1" parent="1" source="vGh0OU2BGsjd0uDzRgnw-7" target="vGh0OU2BGsjd0uDzRgnw-1">
          <mxGeometry relative="1" as="geometry" />
        </mxCell>
        <mxCell id="vGh0OU2BGsjd0uDzRgnw-7" value="data general brace yang&lt;br&gt;sifatnya bukan privasi" style="shape=parallelogram;perimeter=parallelogramPerimeter;whiteSpace=wrap;html=1;fixedSize=1;strokeWidth=1;fillColor=#fff2cc;strokeColor=#d6b656;" vertex="1" parent="1">
          <mxGeometry x="57.5" y="810" width="185" height="60" as="geometry" />
        </mxCell>
        <mxCell id="vGh0OU2BGsjd0uDzRgnw-11" value="" style="edgeStyle=orthogonalEdgeStyle;rounded=0;orthogonalLoop=1;jettySize=auto;html=1;" edge="1" parent="1" source="vGh0OU2BGsjd0uDzRgnw-12" target="vGh0OU2BGsjd0uDzRgnw-15">
          <mxGeometry relative="1" as="geometry" />
        </mxCell>
        <mxCell id="vGh0OU2BGsjd0uDzRgnw-45" value="" style="edgeStyle=orthogonalEdgeStyle;rounded=0;orthogonalLoop=1;jettySize=auto;html=1;" edge="1" parent="1" source="vGh0OU2BGsjd0uDzRgnw-12" target="vGh0OU2BGsjd0uDzRgnw-7">
          <mxGeometry relative="1" as="geometry" />
        </mxCell>
        <mxCell id="vGh0OU2BGsjd0uDzRgnw-12" value="kode benar?" style="rhombus;whiteSpace=wrap;html=1;fillColor=#dae8fc;strokeColor=#6c8ebf;aspect=fixed;" vertex="1" parent="1">
          <mxGeometry x="90" y="650" width="120" height="120" as="geometry" />
        </mxCell>
        <mxCell id="vGh0OU2BGsjd0uDzRgnw-13" value="Ya" style="text;html=1;strokeColor=none;fillColor=none;align=center;verticalAlign=middle;whiteSpace=wrap;rounded=0;" vertex="1" parent="1">
          <mxGeometry x="90" y="770" width="60" height="30" as="geometry" />
        </mxCell>
        <mxCell id="vGh0OU2BGsjd0uDzRgnw-46" style="edgeStyle=orthogonalEdgeStyle;rounded=0;orthogonalLoop=1;jettySize=auto;html=1;entryX=1;entryY=0.5;entryDx=0;entryDy=0;" edge="1" parent="1" source="vGh0OU2BGsjd0uDzRgnw-15" target="vGh0OU2BGsjd0uDzRgnw-31">
          <mxGeometry relative="1" as="geometry">
            <Array as="points">
              <mxPoint x="380" y="365" />
            </Array>
          </mxGeometry>
        </mxCell>
        <mxCell id="vGh0OU2BGsjd0uDzRgnw-15" value="pemberitahuan kode salah,&lt;br&gt;tidak muncul data apapun" style="shape=parallelogram;perimeter=parallelogramPerimeter;whiteSpace=wrap;html=1;fixedSize=1;strokeWidth=1;fillColor=#fff2cc;strokeColor=#d6b656;" vertex="1" parent="1">
          <mxGeometry x="277.5" y="685" width="190" height="50" as="geometry" />
        </mxCell>
        <mxCell id="vGh0OU2BGsjd0uDzRgnw-44" value="" style="edgeStyle=orthogonalEdgeStyle;rounded=0;orthogonalLoop=1;jettySize=auto;html=1;" edge="1" parent="1" source="vGh0OU2BGsjd0uDzRgnw-21" target="vGh0OU2BGsjd0uDzRgnw-12">
          <mxGeometry relative="1" as="geometry" />
        </mxCell>
        <mxCell id="vGh0OU2BGsjd0uDzRgnw-21" value="User menginput kode&lt;br&gt;brace" style="rounded=1;whiteSpace=wrap;html=1;fontSize=12;glass=0;strokeWidth=1;shadow=0;" vertex="1" parent="1">
          <mxGeometry x="50" y="530" width="200" height="70" as="geometry" />
        </mxCell>
        <mxCell id="vGh0OU2BGsjd0uDzRgnw-23" value="Tidak" style="text;html=1;strokeColor=none;fillColor=none;align=center;verticalAlign=middle;whiteSpace=wrap;rounded=0;" vertex="1" parent="1">
          <mxGeometry x="217.5" y="660" width="60" height="30" as="geometry" />
        </mxCell>
        <mxCell id="vGh0OU2BGsjd0uDzRgnw-36" value="" style="edgeStyle=orthogonalEdgeStyle;rounded=0;orthogonalLoop=1;jettySize=auto;html=1;" edge="1" parent="1" source="vGh0OU2BGsjd0uDzRgnw-29" target="vGh0OU2BGsjd0uDzRgnw-31">
          <mxGeometry relative="1" as="geometry" />
        </mxCell>
        <mxCell id="vGh0OU2BGsjd0uDzRgnw-29" value="tampilan aplikasi yang tidak&lt;br&gt;perlu signin" style="shape=parallelogram;perimeter=parallelogramPerimeter;whiteSpace=wrap;html=1;fixedSize=1;strokeWidth=1;fillColor=#fff2cc;strokeColor=#d6b656;" vertex="1" parent="1">
          <mxGeometry x="55" y="238" width="190" height="52" as="geometry" />
        </mxCell>
        <mxCell id="vGh0OU2BGsjd0uDzRgnw-39" value="" style="edgeStyle=orthogonalEdgeStyle;rounded=0;orthogonalLoop=1;jettySize=auto;html=1;" edge="1" parent="1" source="vGh0OU2BGsjd0uDzRgnw-31" target="vGh0OU2BGsjd0uDzRgnw-38">
          <mxGeometry relative="1" as="geometry" />
        </mxCell>
        <mxCell id="vGh0OU2BGsjd0uDzRgnw-31" value="user ingin memasukkan&lt;br&gt;kode brace" style="rounded=1;whiteSpace=wrap;html=1;fontSize=12;glass=0;strokeWidth=1;shadow=0;" vertex="1" parent="1">
          <mxGeometry x="50" y="330" width="200" height="70" as="geometry" />
        </mxCell>
        <mxCell id="vGh0OU2BGsjd0uDzRgnw-40" value="" style="edgeStyle=orthogonalEdgeStyle;rounded=0;orthogonalLoop=1;jettySize=auto;html=1;" edge="1" parent="1" source="vGh0OU2BGsjd0uDzRgnw-38">
          <mxGeometry relative="1" as="geometry">
            <mxPoint x="150" y="530" as="targetPoint" />
          </mxGeometry>
        </mxCell>
        <mxCell id="vGh0OU2BGsjd0uDzRgnw-38" value="tempat input kode brace&lt;br&gt;(lewat semacam button)" style="shape=parallelogram;perimeter=parallelogramPerimeter;whiteSpace=wrap;html=1;fixedSize=1;strokeWidth=1;fillColor=#fff2cc;strokeColor=#d6b656;" vertex="1" parent="1">
          <mxGeometry x="55" y="440" width="190" height="50" as="geometry" />
        </mxCell>
      </root>
    </mxGraphModel>
  </diagram>
</mxfile>
